<svg xmlns="http://www.w3.org/2000/svg" viewBox="0 0 64 64"><path fill="#fff" d="M25.8 9C13.8 9 4 17.1 4 27.1c0 5.7 3.2 10.8 8.2 14.1l-2 7 7.4-3.6c2.6.8 5.3 1.2 8.2 1.2h1.4a16 16 0 0 1-.8-5c0-10.5 9.2-19 20.7-19h1.1C45.7 14.4 36.7 9 25.8 9Zm-7.2 10.1a2.8 2.8 0 1 1 0 5.6 2.8 2.8 0 0 1 0-5.6Zm14.5 0a2.8 2.8 0 1 1 0 5.6 2.8 2.8 0 0 1 0-5.6Z"/><path fill="#fff" d="M60 40.8c0-8.8-8.6-16-19.2-16s-19.2 7.2-19.2 16 8.6 16 19.2 16c2.4 0 4.7-.4 6.8-1l6.5 3.2-1.8-6.2c4.7-2.9 7.7-7.2 7.7-12Zm-25.6-2.2a2.4 2.4 0 1 1 0-4.8 2.4 2.4 0 0 1 0 4.8Zm12.8 0a2.4 2.4 0 1 1 0-4.8 2.4 2.4 0 0 1 0 4.8Z"/></svg>
