<svg xmlns="http://www.w3.org/2000/svg" viewBox="0 0 1024 1024"><path fill="#1e9df1" d="M809.412 150.588H212.088a61.5 61.5 0 0 0-61.5 61.5v597.324c0 33.973 27.528 61.5 61.5 61.5h597.324a61.5 61.5 0 0 0 61.5-61.5V212.088a61.5 61.5 0 0 0-61.5-61.5zM212.088 203.294h597.324c4.849 0 8.794 3.915 8.794 8.794v597.324c0 4.849-3.915 8.794-8.794 8.794H212.088a8.794 8.794 0 0 1-8.794-8.794V212.088c0-4.849 3.915-8.794 8.794-8.794z"/><path fill="#1e9df1" d="M510.735 150.588c13.433 0 24.546 10.06 26.173 23.04l.18 3.313v667.618a26.353 26.353 0 0 1-52.495 3.313l-.21-3.313V176.94c0-14.547 11.805-26.353 26.352-26.353zM844.559 484.382a26.353 26.353 0 0 1 3.313 52.525l-3.313.181H176.941a26.353 26.353 0 0 1-3.313-52.495l3.313-.21h667.618z"/></svg>
