<svg xmlns="http://www.w3.org/2000/svg" viewBox="0 0 1024 1024"><path fill="#1e9df1" d="M513.5 183.83h120.07a1.5 1.5 0 0 1 1.5 1.5v530.28a1.5 1.5 0 0 1-1.5 1.5H513.5a1.5 1.5 0 0 1-1.5-1.5V185.33a1.5 1.5 0 0 1 1.5-1.5zM308.39 388.93h120.07a1.5 1.5 0 0 1 1.5 1.5V715.6a1.5 1.5 0 0 1-1.5 1.5H308.39a1.5 1.5 0 0 1-1.5-1.5V390.43a1.5 1.5 0 0 1 1.5-1.5zM718.61 470.98h120.07a1.5 1.5 0 0 1 1.5 1.5v243.13a1.5 1.5 0 0 1-1.5 1.5H718.61a1.5 1.5 0 0 1-1.5-1.5V472.48a1.5 1.5 0 0 1 1.5-1.5z"/><path fill="#1e9df1" d="M224.85 799.15h615.32c22.66.11 40.93 18.57 40.82 41.22-.11 22.5-18.32 40.71-40.82 40.82H183.83c-22.66 0-41.02-18.36-41.02-41.02V183.83c.11-22.66 18.57-40.93 41.22-40.82 22.5.11 40.71 18.32 40.82 40.82v615.32z"/></svg>
