<svg xmlns="http://www.w3.org/2000/svg" viewBox="0 0 1024 1024"><path fill="#1e9df1" d="M864 832H160a32 32 0 0 0 0 64h704a32 32 0 0 0 0-64zM512 192a132.693 132.693 0 0 1 28.587 2.987 128 128 0 0 1 28.16 238.933l-35.414 17.493v39.68A148.907 148.907 0 0 0 682.667 640H832v85.333H192V640h149.333A148.907 148.907 0 0 0 490.24 491.093v-39.68l-35.413-17.493A128 128 0 0 1 512 192m0-64a191.573 191.573 0 0 0-85.333 363.093 85.333 85.333 0 0 1-85.334 85.334H170.667A42.667 42.667 0 0 0 128 619.093v128a42.667 42.667 0 0 0 42.667 42.667h682.666A42.667 42.667 0 0 0 896 747.093v-128a42.667 42.667 0 0 0-42.667-42.666H682.667a85.333 85.333 0 0 1-85.334-85.334 191.573 191.573 0 0 0-42.666-358.826A197.547 197.547 0 0 0 512 128z"/><path fill="#1e9df1" d="M757.333 472.747a31.147 31.147 0 0 1-14.933-3.414 32 32 0 0 1-13.227-42.666 226.987 226.987 0 0 0 26.454-102.4V296.96a32 32 0 1 1 63.573-7.253 328.107 328.107 0 0 1 0 35.413 291.413 291.413 0 0 1-34.133 131.84 32 32 0 0 1-27.734 15.787z"/></svg>
