<svg xmlns="http://www.w3.org/2000/svg" viewBox="0 0 1024 1024"><path fill="#1e9df1" d="M696.815 119.467H326.74a68.267 68.267 0 0 0-59.306 34.44L82.415 478.174a68.267 68.267 0 0 0 0 67.652l185.02 324.267a68.267 68.267 0 0 0 59.306 34.44h370.074a68.267 68.267 0 0 0 59.255-34.372l185.464-324.267a68.267 68.267 0 0 0 0-67.788L756.07 153.84a68.267 68.267 0 0 0-59.238-34.372zm-370.074 68.266h370.074L882.278 512 696.815 836.267H326.74L141.705 512l185.036-324.267z"/><path fill="#1e9df1" d="M512 358.4a153.6 153.6 0 1 0 0 307.2 153.6 153.6 0 0 0 0-307.2zm0 68.267a85.333 85.333 0 1 1 0 170.666 85.333 85.333 0 0 1 0-170.666z"/></svg>
