<svg xmlns="http://www.w3.org/2000/svg" viewBox="0 0 1024 1024"><path fill="#1e9df1" d="m517.619 205.509-40.251-27.097-108.36 108.36-54.167-54.193-54.167 54.193 108.334 108.334zM555.927 282.125h229.901v38.334H555.927zM517.619 435.384l-40.251-27.097-108.36 108.36-54.167-54.193-54.167 54.193 108.334 108.334zM555.927 512h229.901v38.334H555.927z"/><path fill="#1e9df1" d="M900.752 13.916H134.485c-21.162 0-38.308 17.198-38.308 38.334v919.5c0 21.189 17.146 38.334 38.335 38.334H632.57L939.06 741.875V52.25c0-21.163-17.12-38.334-38.308-38.334zM670.878 874.706V741.875h151.84l-151.84 132.831zm191.566-209.447H632.57c-21.189 0-38.334 17.119-38.334 38.308v229.875h-421.39V90.585h689.625v574.7z"/></svg>
